<svg xmlns="http://www.w3.org/2000/svg" viewBox="0 0 500 500" xmlns:bx="https://boxy-svg.com">
  <path style="fill: none; stroke: rgb(0, 0, 0);" d=""></path>
  <path style="" d="M 0 142.5 H 500 A 0 0 0 0 1 500 142.5 V 435 A 15 15 0 0 1 485 450 H 15 A 15 15 0 0 1 0 435 V 142.5 A 0 0 0 0 1 0 142.5 Z" bx:shape="rect 0 142.5 500 307.5 0 0 0 0 0 0 0 15 15 0 15 15 2@c77870c7"></path>
  <path style="fill: rgb(40, 40, 40);" d="M 15 40 H 485 A 15 15 0 0 1 500 55 V 142.5 A 0 0 0 0 1 500 142.5 H 0 A 0 0 0 0 1 0 142.5 V 55 A 15 15 0 0 1 15 40 Z" bx:shape="rect 0 40 500 102.5 0 15 15 0 15 15 0 0 0 0 0 0 2@4778da99"></path>
  <ellipse style="fill: rgb(50, 138, 93);" cx="450" cy="90" rx="30" ry="30"></ellipse>
  <rect x="20" y="163" width="290" height="71.75" style="fill: rgb(216, 216, 216); stroke: rgb(0, 0, 0);"></rect>
  <rect x="330" y="163" width="130" height="71.75" style="fill: rgb(216, 216, 216); stroke: rgb(0, 0, 0);"></rect>
  <rect x="20" y="255.25" width="110" height="71.75" style="fill: rgb(216, 216, 216); stroke: rgb(0, 0, 0);"></rect>
  <rect x="150" y="255.152" width="190" height="71.848" style="fill: rgb(216, 216, 216); stroke: rgb(0, 0, 0);"></rect>
  <rect x="360" y="255.25" width="100" height="71.75" style="fill: rgb(216, 216, 216); stroke: rgb(0, 0, 0);"></rect>
  <defs>
    <bx:grid x="0" y="0" width="10" height="10"></bx:grid>
  </defs>
</svg>